<svg data-v-16328717="" xmlns="http://www.w3.org/2000/svg" width="36" height="24" viewBox="0 0 36 24" fill="none"><rect x="0.160714" y="0.160714" width="35.6786" height="23.6786" rx="2.83929" fill="white" fill-opacity="0.5"></rect><rect x="0.160714" y="0.160714" width="35.6786" height="23.6786" rx="2.83929" stroke="#E5E5E5" stroke-width="0.321429"></rect><path opacity="0.7" d="M8.694 11.094H7.032V9.126H10.98V11.094H9.33V11.358H11.664V11.91H9.33V12.588H8.694V11.91H6.336V11.358H8.694V11.094ZM7.65 10.344V10.59H10.362V10.344H7.65ZM10.362 9.876V9.63H7.65V9.876H10.362ZM7.59 7.974H6.726V7.44H8.604C8.562 7.332 8.52 7.23 8.472 7.134L9.15 7.026C9.198 7.152 9.246 7.29 9.288 7.44H11.274V7.974H10.44L10.296 8.376H11.586V8.904H6.42V8.376H7.758L7.59 7.974ZM8.388 8.376H9.642L9.786 7.974H8.22L8.388 8.376ZM14.262 9.492H12.63V8.886H17.208C17.166 9.996 17.13 10.656 17.1 10.872C17.076 11.16 17.016 11.358 16.908 11.466C16.8 11.574 16.596 11.628 16.302 11.628C16.128 11.628 15.912 11.634 15.66 11.646L15.48 11.022C15.702 11.028 15.924 11.034 16.152 11.034C16.278 11.034 16.368 10.998 16.422 10.938C16.482 10.866 16.518 10.698 16.53 10.446C16.542 10.302 16.56 9.984 16.578 9.492H14.892V12.606H14.262V9.492ZM12.366 7.59H13.668V7.086H14.304V7.59H15.696V7.086H16.332V7.59H17.634V8.202H16.332V8.694H15.696V8.202H14.304V8.688H13.668V8.202H12.366V7.59Z" fill="#757575"></path><rect x="6" y="15.5" width="25" height="2" rx="0.177778" fill="#CCCCCC"></rect></svg>